<svg width="15" height="15" fill="none" xmlns="http://www.w3.org/2000/svg"><path fill-rule="evenodd" clip-rule="evenodd" d="M0 .882C0 .395.395 0 .882 0H5.78a.882.882 0 0 1 0 1.764H1.764v10.973h10.973V8.72a.882.882 0 0 1 1.763 0v4.898a.882.882 0 0 1-.882.882H.882A.882.882 0 0 1 0 13.618V.882z" fill="#4F331E"/><path fill-rule="evenodd" clip-rule="evenodd" d="M9.208 0a.882.882 0 0 0 0 1.764h2.28L6.625 6.627a.882.882 0 1 0 1.247 1.247l4.863-4.863v2.28a.882.882 0 1 0 1.764 0V.88a.882.882 0 0 0-.882-.88H9.208z" fill="#4F331E"/></svg>