<svg width="20" height="20" fill="none" xmlns="http://www.w3.org/2000/svg"><path fill-rule="evenodd" clip-rule="evenodd" d="M17.5 4H16V2.5A2.5 2.5 0 0 0 13.5 0h-11A2.5 2.5 0 0 0 0 2.5v12A2.5 2.5 0 0 0 2.5 17H11v.5a2.5 2.5 0 0 0 2.5 2.5h4a2.5 2.5 0 0 0 2.5-2.5v-11A2.5 2.5 0 0 0 17.5 4zM15 2.5V4H1V2.5A1.5 1.5 0 0 1 2.5 1h11A1.5 1.5 0 0 1 15 2.5zM1 5h10.5a2.49 2.49 0 0 0-.5 1.5V16H2.5A1.5 1.5 0 0 1 1 14.5V5zm12.5 0A1.5 1.5 0 0 0 12 6.5v11a1.5 1.5 0 0 0 1.5 1.5h4a1.5 1.5 0 0 0 1.5-1.5v-11A1.5 1.5 0 0 0 17.5 5h-4zM5 2H4v1h1V2zm1 0h1v1H6V2zm8 15.5a.5.5 0 0 0 .5.5h2a.5.5 0 0 0 0-1h-2a.5.5 0 0 0-.5.5zM2 2h1v1H2V2z" fill="#fff"/></svg>