<svg width="228" height="70" fill="none" xmlns="http://www.w3.org/2000/svg"><path d="M127.777 10.935v19.861h-5.225V15.597h-6.717v15.195h-5.225V10.935h17.167zm13.247 4.815h5.529l-7.142 15.858c-1.55 3.402-3.494 4.964-6.626 4.964a12.64 12.64 0 0 1-2.918-.36v-4.334c.974.031 1.55.058 1.763.058 1.428 0 2.339-.331 2.977-1.776l.245-.512-5.561-13.902h5.561l2.918 8.454 3.254-8.45zm20.287-.06v4.336h-4.437V30.8h-5.225V20.022h-4.405v-4.335h14.067v.004zm15.822 9.39h-9.725c.576 1.143 1.703 1.713 3.403 1.713 1.369 0 2.674-.39 3.979-1.175l1.886 3.523c-1.795 1.355-3.83 2.015-6.046 2.015-2.493 0-4.528-.754-6.137-2.226-1.609-1.504-2.401-3.402-2.401-5.659 0-2.226.788-4.093 2.338-5.596 1.55-1.535 3.494-2.289 5.774-2.289 2.189 0 3.951.692 5.257 2.078 1.337 1.382 2.007 3.07 2.007 5.057 0 .902-.122 1.746-.335 2.558zm-9.907-3.371h5.289c-.032-1.355-1.156-2.257-2.524-2.257-1.305 0-2.37.812-2.765 2.257zm26.897 4.451c0 1.356-.517 2.469-1.581 3.34-1.065.87-2.371 1.292-3.92 1.292h-8.724V15.75h7.414c1.641 0 3.009.391 4.07 1.176 1.093.781 1.641 1.867 1.641 3.222 0 1.023-.335 1.894-1.034 2.616 1.436.719 2.134 1.863 2.134 3.398zm-9.299-6.38v1.593h2.279c.761 0 1.124-.27 1.124-.812 0-.512-.363-.781-1.124-.781h-2.279zm3.344 6.923c.789 0 1.187-.331 1.187-.964s-.394-.965-1.187-.965h-3.344V26.7h3.344v.003zm24.779 4.093h-5.806l-5.469-7.822v7.822h-5.226V15.75h5.226v6.56l5.107-6.56h5.805l-5.439 6.802 5.802 8.244zm14.521-8.728v8.728h-4.772v-1.234c-1.124 1.055-2.584 1.593-4.378 1.593-3.281 0-5.225-2.015-5.225-4.662 0-2.8 2.279-4.483 5.955-4.483h3.19v-.243c0-1.175-.73-1.925-2.311-1.925-1.368 0-2.339.543-3.798 1.836l-2.429-3.28c1.976-2.016 4.283-3.011 6.866-3.011 4.259 0 6.902 2.346 6.902 6.681zm-5.226 3.222v-.121h-2.461c-.942 0-1.396.39-1.396 1.144 0 .781.517 1.176 1.55 1.176 1.337-.004 2.307-.848 2.307-2.199z" fill="#fff"/><path d="M124.299 53.005c0 1.355-.517 2.468-1.582 3.339-1.064.87-2.37 1.292-3.92 1.292h-8.723V42.59h7.414c1.641 0 3.009.39 4.07 1.175 1.092.781 1.641 1.867 1.641 3.222 0 1.023-.336 1.894-1.034 2.616 1.432.723 2.134 1.867 2.134 3.402zm-9.3-6.381v1.593h2.28c.761 0 1.124-.27 1.124-.812 0-.512-.363-.781-1.124-.781h-2.28zm3.341 6.924c.789 0 1.187-.332 1.187-.965s-.394-.964-1.187-.964h-3.344v1.925h3.344v.004zm42.454 4.092h-5.742l-5.166-7.615v7.615h-5.23v-7.615l-5.166 7.615h-5.742l5.411-8.122-5.044-6.92h6.046l4.495 6.318v-6.318h5.226v6.318l4.496-6.318h6.046l-5.041 6.916 5.411 8.126zm14.876-15.41h1.672v15.406h-5.225v-6.56l-8.203 6.92h-1.673V42.59h5.226v6.56l8.203-6.92zm17.53 11.255c0 1.414-.639 2.527-1.944 3.339-1.306.781-2.978 1.172-5.044 1.172-3.069 0-5.38-.903-6.898-2.738l2.796-3.1c1.002.991 2.37 1.475 4.133 1.475 1.306 0 1.944-.3 1.944-.933 0-.57-.457-.843-1.396-.843h-2.827v-3.613h2.524c.729 0 1.092-.269 1.092-.812 0-.57-.548-.843-1.641-.843-1.672 0-2.946.453-3.829 1.324l-2.796-3.101c1.491-1.715 3.707-2.59 6.657-2.59 1.976 0 3.585.422 4.831 1.235 1.246.812 1.854 1.925 1.854 3.37 0 1.265-.485 2.316-1.428 3.16 1.305.882 1.972 2.026 1.972 3.498zm17.38-10.891V57.64h-5.225v-5.506h-4.437v5.506h-5.229V42.594h5.225v5.205h4.437v-5.205h5.229zm8.487 0v3.19h2.189c1.944 0 3.557.512 4.831 1.566 1.274 1.055 1.913 2.5 1.913 4.362 0 1.867-.639 3.312-1.913 4.362-1.278 1.055-2.887 1.566-4.831 1.566h-7.414V42.594h5.225zm0 7.521v3.19h1.794c1.002 0 1.822-.48 1.822-1.534s-.851-1.656-1.822-1.656h-1.794z" fill="#FFA213"/><path d="M88.49 15.282L45.511.11a1.926 1.926 0 0 0-1.274 0L1.26 15.282c-1.677.593-1.677 2.94 0 3.534l17.79 6.283v18.487H70.7V25.1l17.79-6.28c1.68-.593 1.68-2.944 0-3.537z" fill="#fff"/><path d="M42.486 48.19a15.188 15.188 0 0 0 2.24-7.963v-1.636H24.087C12.773 38.59 3.6 47.674 3.6 58.878V70h48.954c9.938 0 17.995-9.767 17.995-21.81H42.485z" fill="#FFA213"/></svg>