<svg width="20" height="20" fill="none" xmlns="http://www.w3.org/2000/svg"><path d="M6 12.273h7.273" stroke="#fff" stroke-linecap="round"/><path d="M7.136 15a.5.5 0 0 0 1 0h-1zm.5-10v-.5a.5.5 0 0 0-.5.5h.5zM6 9.717a.5.5 0 1 0 0 1v-1zM8.136 15V5h-1v10h1zm3.591-5.283H6v1h5.727v-1zm0 1c.729 0 1.47-.258 2.031-.788.569-.538.924-1.325.924-2.32h-1c0 .744-.259 1.26-.61 1.593a1.954 1.954 0 0 1-1.345.515v1zm2.955-3.108c0-.995-.355-1.783-.924-2.32a2.953 2.953 0 0 0-2.03-.789v1c.498 0 .985.177 1.343.516.352.332.61.849.61 1.593h1zM11.727 4.5H7.636v1h4.091v-1z" fill="#fff"/><circle cx="10" cy="10" r="9.5" stroke="#fff"/></svg>