<svg width="24" height="24" fill="none" xmlns="http://www.w3.org/2000/svg"><path fill-rule="evenodd" clip-rule="evenodd" d="M12.156 5.55a1.9 1.9 0 0 1 2.636-.05l-9.646 9.646A7.328 7.328 0 0 0 3 20.328v.172a.5.5 0 0 0 .5.5h.172a7.329 7.329 0 0 0 5.182-2.146L20.505 7.202a1.7 1.7 0 0 0 0-2.404l-1.303-1.303a1.7 1.7 0 0 0-2.404 0l-1.299 1.299a2.9 2.9 0 0 0-4.05.05L8.146 8.146a.5.5 0 1 0 .708.708l3.303-3.303zM6.207 15.5L8.5 17.793 19.798 6.495a.7.7 0 0 0 0-.99l-1.303-1.303a.7.7 0 0 0-.99 0L6.207 15.5zm1.572 2.986l-2.265-2.265a6.329 6.329 0 0 0-1.505 3.77 6.328 6.328 0 0 0 3.77-1.505z" fill="#fff"/></svg>